<?xml version="1.0" encoding="UTF-8"?>
<svg width="18px" height="18px" viewBox="0 0 18 18" version="1.1" xmlns="http://www.w3.org/2000/svg">
    <g stroke="none" stroke-width="1" fill="none" fill-rule="evenodd">
        <path d="M9,0 C4.0275,0 0,4.0275 0,9 C0,12.9825 2.57625,16.3425 6.15375,17.5275 C6.60375,17.6175 6.7725,17.3475 6.7725,17.1075 C6.7725,16.8975 6.76125,16.1625 6.76125,15.4125 C4.5,15.8625 3.915,14.9025 3.735,14.3925 C3.63375,14.1375 3.195,13.335 2.8125,13.125 C2.4975,12.96 2.0475,12.51 2.80125,12.4988 C3.51,12.4875 4.01625,13.1475 4.185,13.4138 C4.995,14.7863 6.28875,14.4338 6.80625,14.1938 C6.8925,13.6088 7.125,13.2113 7.38,12.9825 C5.3775,12.7538 3.285,11.97 3.285,8.5275 C3.285,7.54875 3.63375,6.73875 4.2075,6.10875 C4.1175,5.88 3.8025,4.96125 4.2975,3.72375 C4.2975,3.72375 5.05125,3.48375 6.7725,4.64625 C7.4925,4.44375 8.2575,4.34625 9.0225,4.34625 C9.7875,4.34625 10.5525,4.44375 11.2725,4.64625 C12.9938,3.47125 13.7475,3.72375 13.7475,3.72375 C14.2425,4.96125 13.9275,5.88 13.8375,6.10875 C14.4113,6.73875 14.76,7.5375 14.76,8.5275 C14.76,11.9813 12.6562,12.7538 10.6538,12.9825 C10.98,13.2675 11.2613,13.8225 11.2613,14.6775 C11.2613,15.9075 11.25,16.8075 11.25,17.1075 C11.25,17.3475 11.4188,17.6288 11.8688,17.5275 C15.4238,16.3425 18,12.9712 18,9 C18,4.0275 13.9725,0 9,0 Z" fill="#24292F"/>
    </g>
</svg> 